<svg width="69" height="63" viewBox="0 0 69 63" fill="none" xmlns="http://www.w3.org/2000/svg">
<path d="M65.5777 13.8619H9.12254L18.4746 4.55524C19.5181 3.51666 19.5221 1.82883 18.4835 0.785322C17.4449 -0.258321 15.7569 -0.262186 14.7134 0.77626L0.784316 14.6382C0.783383 14.639 0.782717 14.6399 0.781917 14.6407C-0.258928 15.6793 -0.26226 17.3726 0.781651 18.4146C0.782584 18.4154 0.78325 18.4164 0.78405 18.4172L14.7132 32.2791C15.7565 33.3174 17.4445 33.3138 18.4832 32.27C19.5218 31.2265 19.5178 29.5387 18.4743 28.5001L9.12254 19.1934H65.5777C67.05 19.1934 68.2434 18 68.2434 16.5277C68.2434 15.0554 67.05 13.8619 65.5777 13.8619Z" fill="#5464BD"/>
<path d="M2.66597 43.7184H59.1211L49.7691 34.4117C48.7256 33.3731 48.7216 31.6853 49.7602 30.6418C50.7988 29.5981 52.4867 29.5943 53.5302 30.6327L67.4593 44.4946L67.4617 44.4972C68.5026 45.5358 68.5059 47.229 67.462 48.2711L67.4596 48.2736L53.5305 62.1356C52.4871 63.1739 50.7991 63.1703 49.7604 62.1265C48.7219 61.083 48.7259 59.3952 49.7694 58.3566L59.1211 49.0499H2.66597C1.19367 49.0499 0.000213623 47.8564 0.000213623 46.3841C0.000213623 44.9118 1.19367 43.7184 2.66597 43.7184Z" fill="#5464BD"/>
</svg>
