<svg width="44" height="62" viewBox="0 0 44 62" fill="none" xmlns="http://www.w3.org/2000/svg">
<path d="M21.7969 0C9.77808 0 0 9.77808 0 21.7969C0 25.8576 1.12484 29.8205 3.25367 33.2586L20.5561 61.1413C20.8876 61.6755 21.4715 62 22.0995 62C22.1043 62 22.1091 62 22.1139 62C22.7473 61.995 23.3325 61.6605 23.6578 61.117L40.5193 32.9641C42.5307 29.5987 43.5938 25.7371 43.5938 21.7969C43.5938 9.77808 33.8157 0 21.7969 0ZM37.4017 31.0991L22.072 56.6944L6.34132 31.3446C4.56935 28.4829 3.60859 25.1814 3.60859 21.7969C3.60859 11.7812 11.7812 3.60859 21.7969 3.60859C31.8125 3.60859 39.973 11.7812 39.973 21.7969C39.973 25.0811 39.0756 28.2982 37.4017 31.0991Z" fill="#5464BD"/>
<path d="M21.7969 10.8984C15.7875 10.8984 10.8984 15.7875 10.8984 21.7969C10.8984 27.7679 15.7079 32.6953 21.7969 32.6953C27.9609 32.6953 32.6953 27.7023 32.6953 21.7969C32.6953 15.7875 27.8063 10.8984 21.7969 10.8984ZM21.7969 29.0867C17.7697 29.0867 14.507 25.8132 14.507 21.7969C14.507 17.7906 17.7906 14.507 21.7969 14.507C25.8031 14.507 29.0746 17.7906 29.0746 21.7969C29.0746 25.7546 25.8879 29.0867 21.7969 29.0867Z" fill="#5464BD"/>
</svg>
