<svg width="60" height="60" viewBox="0 0 60 60" fill="none" xmlns="http://www.w3.org/2000/svg">
<path d="M53.7194 44.611C52.6808 43.8384 51.2126 44.0542 50.44 45.0926C50.0151 45.6637 49.5604 46.224 49.0885 46.7578C48.2313 47.7275 48.3223 49.2088 49.2921 50.0661C49.7381 50.4603 50.2918 50.6539 50.8435 50.6539C51.4918 50.6539 52.1373 50.3864 52.6004 49.8625C53.1592 49.2303 53.6977 48.5668 54.2009 47.8903C54.9735 46.8519 54.758 45.3835 53.7194 44.611Z" fill="#5464BD"/>
<path d="M57.6391 33.6194C56.3751 33.3441 55.1257 34.1463 54.8505 35.411C54.6989 36.1067 54.5159 36.8038 54.306 37.483C53.9239 38.7198 54.6167 40.032 55.8534 40.4142C56.0839 40.4853 56.3168 40.5192 56.5461 40.5192C57.5468 40.5192 58.4736 39.873 58.7846 38.8666C59.0337 38.0606 59.251 37.2334 59.4307 36.408C59.706 35.1433 58.9039 33.8948 57.6391 33.6194Z" fill="#5464BD"/>
<path d="M42.4381 52.1173C41.8158 52.4646 41.1715 52.7892 40.5232 53.0821C39.3435 53.6148 38.8191 55.003 39.3518 56.1827C39.7432 57.0494 40.5963 57.5624 41.4892 57.5624C41.8117 57.5624 42.1395 57.4955 42.4525 57.3541C43.2216 57.0068 43.9854 56.6218 44.7233 56.2099C45.8535 55.579 46.2582 54.1512 45.627 53.021C44.9962 51.891 43.5684 51.4863 42.4381 52.1173Z" fill="#5464BD"/>
<path d="M27.6563 11.25V29.0292L19.0619 37.6235C18.1467 38.5389 18.1467 40.0228 19.0619 40.938C19.5196 41.3958 20.1193 41.6245 20.7193 41.6245C21.3191 41.6245 21.9189 41.3957 22.3767 40.938L31.6575 31.6573C32.0969 31.2178 32.3438 30.6216 32.3438 30V11.25C32.3438 9.95555 31.2945 8.90625 30.0001 8.90625C28.7056 8.90625 27.6563 9.95555 27.6563 11.25Z" fill="#5464BD"/>
<path d="M57.6562 5.03906C56.3618 5.03906 55.3125 6.08836 55.3125 7.38281V13.8909C49.8572 5.33531 40.3302 0 30 0C21.9867 0 14.4531 3.12059 8.78672 8.78672C3.12059 14.4531 0 21.9867 0 30C0 38.0133 3.12059 45.5469 8.78672 51.2133C14.4531 56.8794 21.9867 60 30 60C30.0198 60 30.0389 59.9975 30.0586 59.9971C30.0783 59.9975 30.0974 60 30.1172 60C30.9619 60 31.8149 59.9644 32.6528 59.8943C33.9427 59.7862 34.9008 58.653 34.7929 57.3632C34.6847 56.0733 33.553 55.1147 32.2616 55.2232C31.5533 55.2824 30.8319 55.3125 30.1172 55.3125C30.0974 55.3125 30.0783 55.315 30.0586 55.3154C30.0389 55.315 30.0198 55.3125 30 55.3125C16.0426 55.3125 4.6875 43.9574 4.6875 30C4.6875 16.0426 16.0426 4.6875 30 4.6875C38.9951 4.6875 47.2684 9.48199 51.7894 17.1094H45.3449C44.0504 17.1094 43.0011 18.1587 43.0011 19.4531C43.0011 20.7476 44.0504 21.7969 45.3449 21.7969H52.5C53.9273 21.7969 55.2627 21.3957 56.3997 20.7008C56.4728 20.6591 56.5431 20.6142 56.6101 20.5658C58.6499 19.2239 60 16.9157 60 14.2969V7.38281C60 6.08836 58.9507 5.03906 57.6562 5.03906Z" fill="#5464BD"/>
</svg>
